{
  "accessors": [
    {
      "bufferView": 1,
      "componentType": 5126,
      "type": "VEC3",
      "count": 1771,
      "min": [-13, -11, 0],
      "max": [4, 6, 16]
    },
    {
      "bufferView": 1,
      "componentType": 5126,
      "type": "VEC3",
      "byteOffset": 12,
      "count": 1771
    },
    {
      "bufferView": 1,
      "componentType": 5126,
      "type": "VEC2",
      "byteOffset": 24,
      "count": 1771
    },
    {
      "bufferView": 2,
      "componentType": 5125,
      "type": "SCALAR",
      "count": 4368
    },
    {
      "bufferView": 3,
      "componentType": 5126,
      "type": "VEC3",
      "count": 956,
      "min": [-9, -8, 11],
      "max": [2, 2, 17]
    },
    {
      "bufferView": 3,
      "componentType": 5126,
      "type": "VEC3",
      "byteOffset": 12,
      "count": 956
    },
    {
      "bufferView": 3,
      "componentType": 5126,
      "type": "VEC2",
      "byteOffset": 24,
      "count": 956
    },
    {
      "bufferView": 4,
      "componentType": 5125,
      "type": "SCALAR",
      "count": 2208
    },
    {
      "bufferView": 5,
      "componentType": 5126,
      "type": "VEC3",
      "count": 929,
      "min": [-12, -8, 7],
      "max": [-1, 2, 13]
    },
    {
      "bufferView": 5,
      "componentType": 5126,
      "type": "VEC3",
      "byteOffset": 12,
      "count": 929
    },
    {
      "bufferView": 5,
      "componentType": 5126,
      "type": "VEC2",
      "byteOffset": 24,
      "count": 929
    },
    {
      "bufferView": 6,
      "componentType": 5125,
      "type": "SCALAR",
      "count": 2208
    },
    {
      "bufferView": 7,
      "componentType": 5126,
      "type": "VEC3",
      "count": 916,
      "min": [-14, -13, 11],
      "max": [-3, -3, 17]
    },
    {
      "bufferView": 7,
      "componentType": 5126,
      "type": "VEC3",
      "byteOffset": 12,
      "count": 916
    },
    {
      "bufferView": 7,
      "componentType": 5126,
      "type": "VEC2",
      "byteOffset": 24,
      "count": 916
    },
    {
      "bufferView": 8,
      "componentType": 5125,
      "type": "SCALAR",
      "count": 2208
    }
  ],
  "asset": {
    "generator": "goxel",
    "version": "2.0"
  },
  "bufferViews": [
    {
      "buffer": 0,
      "byteLength": 243
    },
    {
      "buffer": 1,
      "byteLength": 70840,
      "byteStride": 40
    },
    {
      "buffer": 2,
      "byteLength": 17472
    },
    {
      "buffer": 3,
      "byteLength": 38240,
      "byteStride": 40
    },
    {
      "buffer": 4,
      "byteLength": 8832
    },
    {
      "buffer": 5,
      "byteLength": 37160,
      "byteStride": 40
    },
    {
      "buffer": 6,
      "byteLength": 8832
    },
    {
      "buffer": 7,
      "byteLength": 36640,
      "byteStride": 40
    },
    {
      "buffer": 8,
      "byteLength": 8832
    }
  ],
  "buffers": [
    {
      "uri": "data:application/octet-stream;base64,",
      "byteLength": 243
    },
    {
      "uri": "data:application/octet-stream;base64,",
      "byteLength": 70840
    },
    {
      "uri": "data:application/octet-stream;base64,",
      "byteLength": 17472
    },
    {
      "uri": "data:application/octet-stream;base64,",
      "byteLength": 38240
    },
    {
      "uri": "data:application/octet-stream;base64,",
      "byteLength": 8832
    },
    {
      "uri": "data:application/octet-stream;base64,",
      "byteLength": 37160
    },
    {
      "uri": "data:application/octet-stream;base64,",
      "byteLength": 8832
    },
    {
      "uri": "data:application/octet-stream;base64,",
      "byteLength": 36640
    },
    {
      "uri": "data:application/octet-stream;base64,",
      "byteLength": 8832
    }
  ],
  "images": [
    {
      "bufferView": 0,
      "mimeType": "image/png"
    }
  ],
  "meshes": [
    {
      "primitives": [
        {
          "indices": 3,
          "material": 0,
          "attributes": {
            "POSITION": 0,
            "NORMAL": 1,
            "TEXCOORD_0": 2
          }
        }
      ]
    },
    {
      "primitives": [
        {
          "indices": 7,
          "material": 0,
          "attributes": {
            "POSITION": 4,
            "NORMAL": 5,
            "TEXCOORD_0": 6
          }
        }
      ]
    },
    {
      "primitives": [
        {
          "indices": 11,
          "material": 0,
          "attributes": {
            "POSITION": 8,
            "NORMAL": 9,
            "TEXCOORD_0": 10
          }
        }
      ]
    },
    {
      "primitives": [
        {
          "indices": 15,
          "material": 0,
          "attributes": {
            "POSITION": 12,
            "NORMAL": 13,
            "TEXCOORD_0": 14
          }
        }
      ]
    }
  ],
  "materials": [
    {
      "name": "Material.1",
      "pbrMetallicRoughness": {
        "baseColorTexture": {
          "index": 0
        },
        "metallicFactor": 0.200000003,
        "roughnessFactor": 0.5
      }
    }
  ],
  "nodes": [
    {
      "children": [ 1, 2, 3, 4 ],
      "matrix": [1, 0, 0, 0, 0, 0, -1, 0, 0, 1, 0, 0, 0, 0, 0, 1]
    },
    {
      "mesh": 0,
      "name": "Layer.1"
    },
    {
      "mesh": 1,
      "name": "Layer.2"
    },
    {
      "mesh": 2,
      "name": "Layer.3"
    },
    {
      "mesh": 3,
      "name": "Layer.4"
    }
  ],
  "scenes": [
    {
      "nodes": [ 0 ]
    }
  ],
  "textures": [
    {
      "source": 0
    }
  ]
}
